<?xml version="1.0" encoding="utf-8"?>
<!-- Generator: Adobe Illustrator 17.0.2, SVG Export Plug-In . SVG Version: 6.00 Build 0)  -->
<!DOCTYPE svg PUBLIC "-//W3C//DTD SVG 1.1//EN" "http://www.w3.org/Graphics/SVG/1.1/DTD/svg11.dtd">
<svg version="1.1" id="Capa_1" xmlns="http://www.w3.org/2000/svg" xmlns:xlink="http://www.w3.org/1999/xlink" x="0px" y="0px"
	 width="324.38px" height="80px" viewBox="0 0 324.38 80" enable-background="new 0 0 324.38 80" xml:space="preserve">
<g>
	<defs>
		<rect id="SVGID_1_" x="19.999" y="20" width="284.383" height="40"/>
	</defs>
	<clipPath id="SVGID_2_">
		<use xlink:href="#SVGID_1_"  overflow="visible"/>
	</clipPath>
	<path clip-path="url(#SVGID_2_)" fill="#E30521" d="M30.209,48.199c-2.698,0-4.906-1.061-5.171-3.975h-5.039
		c0.088,5.39,4.376,7.953,10.122,7.953c4.727,0,10.208-1.989,10.208-7.424c0-4.508-3.712-5.834-7.379-6.674
		c-3.713-0.84-7.428-1.195-7.428-3.668c0-1.989,2.698-2.345,4.155-2.345c2.211,0,4.201,0.663,4.641,3.051h5.259
		c-0.618-5.082-4.86-7.026-9.545-7.026c-4.155,0-9.548,1.545-9.548,6.54c0,4.641,3.622,5.967,7.336,6.764
		c3.668,0.84,7.336,1.147,7.47,3.799C35.423,47.801,32.11,48.199,30.209,48.199"/>
	<path clip-path="url(#SVGID_2_)" fill="#E30521" d="M46.572,45.945c0.089,3.802,1.061,5.834,6.321,5.834
		c1.104,0,2.166-0.177,3.27-0.265v-3.89C55.456,47.8,54.748,47.8,54.041,47.8c-2.253,0-2.429-1.059-2.429-3.138V32.465h4.55v-3.757
		h-4.55v-6.852h-5.04v6.852H42.77v3.757h3.802V45.945z"/>
	<path clip-path="url(#SVGID_2_)" fill="#E30521" d="M70.752,52.177c4.994,0,9.237-2.783,10.342-7.777h-4.773
		c-0.885,2.518-2.652,3.799-5.569,3.799c-4.198,0-6.145-3.182-6.145-6.761h16.795c0.84-6.85-3.579-13.348-10.785-13.348
		c-6.804,0-11.047,5.567-11.047,12.064C59.571,47.183,63.592,52.177,70.752,52.177 M70.618,32.066c3.403,0,5.57,2.874,5.746,6.056
		H64.608C64.742,34.718,67.127,32.066,70.618,32.066"/>
	<path clip-path="url(#SVGID_2_)" fill="#E30521" d="M96.22,52.177c4.995,0,9.238-2.783,10.342-7.777h-4.772
		c-0.885,2.518-2.652,3.799-5.57,3.799c-4.197,0-6.144-3.182-6.144-6.761h16.795c0.84-6.85-3.579-13.348-10.785-13.348
		c-6.804,0-11.047,5.567-11.047,12.064C85.04,47.183,89.061,52.177,96.22,52.177 M96.087,32.066c3.403,0,5.569,2.874,5.746,6.056
		H90.077C90.211,34.718,92.596,32.066,96.087,32.066"/>
	<rect x="111.745" y="20" clip-path="url(#SVGID_2_)" fill="#E30521" width="5.039" height="31.559"/>
	<path clip-path="url(#SVGID_2_)" fill="#E30521" d="M131.109,52.223c3.4,0,6.408-1.725,7.866-4.775h0.089v4.111h2.564V28.753
		h-2.785v11.978c0,4.639-2.075,9.149-6.85,9.149c-4.42,0-5.967-2.166-6.099-6.277v-14.85h-2.786V43.56
		C123.106,48.862,125.361,52.223,131.109,52.223"/>
	<path clip-path="url(#SVGID_2_)" fill="#E30521" d="M147.734,28.754v22.806h2.786V38.256c0.088-4.465,2.741-7.823,7.159-7.823
		c4.508,0,5.79,2.96,5.79,6.893v14.234h2.785V36.884c0-5.435-1.944-8.794-8.353-8.794c-3.227,0-6.277,1.856-7.293,4.594h-0.088
		v-3.931H147.734z"/>
	<rect x="172.449" y="28.754" clip-path="url(#SVGID_2_)" fill="#E30521" width="2.785" height="22.806"/>
	<rect x="172.449" y="20" clip-path="url(#SVGID_2_)" fill="#E30521" width="2.785" height="4.465"/>
	<polygon clip-path="url(#SVGID_2_)" fill="#E30521" points="199.194,28.754 196.319,28.754 189.247,48.773 189.159,48.773 
		181.999,28.754 178.906,28.754 187.702,51.559 190.661,51.559 	"/>
	<path clip-path="url(#SVGID_2_)" fill="#E30521" d="M211.977,28.09c-7.249,0-10.3,6.053-10.3,12.064
		c0,6.497,3.051,12.069,10.3,12.069c5.745,0,8.75-3.005,9.942-8.179h-2.783c-0.885,3.446-3.094,5.836-7.159,5.836
		c-5.349,0-7.471-4.908-7.514-8.973h17.546C222.23,34.497,219.312,28.09,211.977,28.09 M204.463,38.566
		c0.442-4.155,2.961-8.133,7.514-8.133c4.507,0,7.114,3.932,7.248,8.133H204.463z"/>
	<path clip-path="url(#SVGID_2_)" fill="#E30521" d="M226.659,28.754v22.806h2.783V39.405c0-4.733,3.451-8.443,8.487-8.179v-2.783
		c-4.109-0.176-7.203,1.989-8.617,5.657h-0.089v-5.347H226.659z"/>
	<path clip-path="url(#SVGID_2_)" fill="#E30521" d="M249.692,49.881c-3.712,0-6.497-1.947-6.719-5.703h-2.785
		c0.443,5.57,4.067,8.045,9.371,8.045c4.243,0,9.149-1.905,9.149-6.853c0-3.976-3.315-5.834-6.497-6.321l-3.714-0.84
		c-1.897-0.486-4.726-1.372-4.726-3.845c0-2.962,2.918-3.933,5.391-3.933c3.184,0,5.833,1.546,5.967,4.995h2.786
		c-0.179-4.952-3.801-7.336-8.355-7.336c-4.022,0-8.575,1.765-8.575,6.406c0,3.89,2.741,5.128,6.366,6.101l3.58,0.797
		c2.519,0.618,4.995,1.503,4.995,4.152C255.925,48.731,252.299,49.881,249.692,49.881"/>
	<rect x="263.664" y="28.754" clip-path="url(#SVGID_2_)" fill="#E30521" width="2.787" height="22.806"/>
	<rect x="263.664" y="20" clip-path="url(#SVGID_2_)" fill="#E30521" width="2.787" height="4.465"/>
	<path clip-path="url(#SVGID_2_)" fill="#E30521" d="M274.323,46.696c-0.047,3.89,1.235,5.125,4.948,5.125
		c0.84,0,1.636-0.086,2.475-0.086v-2.387c-0.797,0.089-1.591,0.131-2.387,0.131c-1.989-0.131-2.253-1.193-2.253-3.005V31.096h4.641
		v-2.342h-4.641v-6.853h-2.783v6.853h-3.98v2.342h3.98V46.696z"/>
	<path clip-path="url(#SVGID_2_)" fill="#E30521" d="M292.228,54.078c-0.928,2.123-1.503,3.58-3.979,3.58
		c-0.618,0-1.237-0.089-1.901-0.222v2.342c0.441,0.177,1.017,0.177,2.124,0.222c3.491,0,4.419-1.104,6.009-4.949l9.901-26.297
		h-2.786l-7.026,19.446l-7.513-19.446h-2.962l9.107,22.715L292.228,54.078z"/>
</g>
<g>
</g>
<g>
</g>
<g>
</g>
<g>
</g>
<g>
</g>
<g>
</g>
<g>
</g>
<g>
</g>
<g>
</g>
<g>
</g>
<g>
</g>
<g>
</g>
<g>
</g>
<g>
</g>
<g>
</g>
</svg>
